<?xml version="1.0" encoding="UTF-8"?>
<svg width="81.173mm" height="81.173mm" version="1.1" viewBox="0 0 81.173 81.173" xmlns="http://www.w3.org/2000/svg" xmlns:xlink="http://www.w3.org/1999/xlink">
 <defs>
  <radialGradient id="radialGradient2532" cx="100.46" cy="111.33" r="40.587" gradientTransform="matrix(1 0 0 .86713 0 14.793)" gradientUnits="userSpaceOnUse">
   <stop stop-color="#7e6fff" offset="0"/>
   <stop stop-color="#6958ff" offset="1"/>
  </radialGradient>
 </defs>
 <g transform="translate(-75.193 -95.418)">
  <path transform="translate(15.315 24.584)" d="m93.463 123.4-13.369 23.039 26.336-7e-3 -3.9179-6.7516-10.428 5.9e-4 9.4477-16.281zm11.698 1.5776-3.3218 5.7243 9.129 15.732h6.6466zm2.2518-1.5468 13.268 23.098 13.162-22.811-7.806 0.0172-5.2137 9.0316-9.3757-16.322zm7.2153-9.342 3.2965 5.739 18.189-0.0401 3.3233-5.7562zm-0.21367-2.7235 26.637 0.0588-13.174-22.804-3.8881 6.7688 5.2148 9.031-18.823-0.0415zm-4.4828-10.92 6.6183 0.0146 9.0595-15.772-3.3233-5.7562zm-2.4655-1.1767 13.369-23.039-26.336 7e-3 3.9179 6.7516 10.428-5.9e-4 -9.4477 16.281zm-11.698-1.5776 3.3218-5.7243-9.129-15.732h-6.6466zm-2.2518 1.5468-13.268-23.098-13.162 22.811 7.806-0.01723 5.2137-9.0316 9.3757 16.322zm-7.2153 9.342-3.2965-5.739-18.189 0.0401-3.3233 5.7562zm0.21368 2.7235-26.637-0.0588 13.174 22.804 3.8881-6.7688-5.2148-9.031 18.823 0.0415zm4.4828 10.92-6.6183-0.0146-9.0595 15.772 3.3233 5.7562z" fill="url(#radialGradient2532)" stroke-width=".26458"/>
 </g>
</svg>
